Coordinates
version=1
nRows=11
nColumns=36
inDegrees=yes

Units are S.I. units (second, meters, Newtons, ...)
Angles are in degrees.

endheader
time	pelvis_tilt	pelvis_list	pelvis_rotation	pelvis_tx	pelvis_ty	pelvis_tz	hip_flexion_r	hip_adduction_r	hip_rotation_r	knee_angle_r	ankle_angle_r	subtalar_angle_r	hip_flexion_l	hip_adduction_l	hip_rotation_l	knee_angle_l	ankle_angle_l	subtalar_angle_l	lumbar_extension	lumbar_bending	lumbar_rotation	arm_flex_r	arm_add_r	arm_rot_r	elbow_flex_r	pro_sup_r	wrist_flex_r	wrist_dev_r	arm_flex_l	arm_add_l	arm_rot_l	elbow_flex_l	pro_sup_l	wrist_flex_l	wrist_dev_l
      1.35000000	     -2.01960825	      5.52475324	      4.49046563	     -0.24596017	      0.90575125	      0.23780260	     12.71366490	     -4.11036112	     -1.08512072	    -65.79519757	     -6.75844181	     -9.77912109	     18.29421269	     10.83727618	      2.01065694	    -27.44281271	      7.52025928	      3.77082918	     -4.42557934	     -5.25993429	     -1.73430417	     -2.03333429	    -18.54013906	     12.48277015	     25.14474740	     86.51662706	      0.00000000	      0.00000000	     -0.43356560	    -14.80993253	     22.90518741	     18.97378418	     86.51662706	      0.00000000	      0.00000000
      1.36000000	     -2.03200041	      5.26565280	      4.20930941	     -0.23372482	      0.90758877	      0.23781981	     14.67164965	     -3.84749043	     -0.85834588	    -66.31914691	     -5.76583735	     -9.23968726	     17.13325624	     10.43587987	      1.95763577	    -26.87384336	      8.11801319	      4.12686519	     -4.41578647	     -4.93951301	     -2.06110284	     -2.10930542	    -18.37734847	     13.10051603	     23.96094804	     86.51662706	      0.00000000	      0.00000000	     -0.20516467	    -14.85956220	     22.97611058	     19.53612602	     86.51662706	      0.00000000	      0.00000000
      1.37000000	     -2.04034219	      4.99398544	      3.99206111	     -0.22144984	      0.90940884	      0.23777625	     16.52705555	     -3.59067584	     -0.73172316	    -66.48350700	     -4.76457841	     -8.47184246	     15.92842538	     10.08504824	      2.14411080	    -26.23870107	      8.65011888	      4.26477947	     -4.40010870	     -4.60129161	     -2.43430449	     -2.28447145	    -18.21660504	     13.55098930	     22.91292064	     86.51662706	      0.00000000	      0.00000000	      0.03190505	    -14.92547933	     23.11714391	     20.10465369	     86.51662706	      0.00000000	      0.00000000
      1.38000000	     -2.04109859	      4.71349658	      3.84113421	     -0.20914367	      0.91117381	      0.23767232	     18.26887535	     -3.35988024	     -0.72084691	    -66.30123033	     -3.77342804	     -7.60563951	     14.68578878	      9.78054999	      2.52906883	    -25.54919816	      9.12458500	      4.20154877	     -4.38489891	     -4.25116513	     -2.85329192	     -2.54878348	    -18.06198098	     13.82369996	     21.99973616	     86.51662706	      0.00000000	      0.00000000	      0.28087594	    -15.01084637	     23.31712478	     20.68834863	     86.51662706	      0.00000000	      0.00000000
      1.39000000	     -2.03217812	      4.42885284	      3.75419866	     -0.19681359	      0.91284239	      0.23749853	     19.88877896	     -3.16911168	     -0.83315873	    -65.78354325	     -2.81926691	     -6.76629691	     13.41070833	      9.51210747	      3.05613786	    -24.81583774	      9.54904274	      3.97215531	     -4.37659625	     -3.89401355	     -3.31555804	     -2.88513410	    -17.91786472	     13.92073959	     21.21105485	     86.51662706	      0.00000000	      0.00000000	      0.54465613	    -15.11829080	     23.56352491	     21.29321375	     86.51662706	      0.00000000	      0.00000000
      1.40000000	     -2.01229385	      4.14627058	      3.72506397	     -0.18446440	      0.91437824	      0.23725324	     21.38053812	     -3.02540995	     -1.06513106	    -64.93943722	     -1.93404428	     -6.06024197	     12.10594001	      9.26697069	      3.66423055	    -24.04585021	      9.93148953	      3.62446670	     -4.38145168	     -3.53533191	     -3.81627998	     -3.27331680	    -17.78721534	     13.85517263	     20.52922859	     86.51662706	      0.00000000	      0.00000000	      0.82536808	    -15.25000542	     23.84358080	     21.92136227	     86.51662706	      0.00000000	      0.00000000
      1.41000000	     -1.98002356	      3.87289962	      3.74476985	     -0.17210813	      0.91574912	      0.23695301	     22.73952994	     -2.92914536	     -1.40242721	    -63.77638128	     -1.14876086	     -5.56507224	     10.77068758	      9.03296286	      4.29724069	    -23.24245782	     10.28058960	      3.21266750	     -4.40512995	     -3.18191359	     -4.34820081	     -3.69352112	    -17.67029472	     13.64856028	     19.93204421	     86.51662706	      0.00000000	      0.00000000	      1.12407468	    -15.40773272	     24.14507935	     22.57072679	     86.51662706	      0.00000000	      0.00000000
      1.42000000	     -1.93291052	      3.61569995	      3.80268407	     -0.15976123	      0.91692140	      0.23662135	     23.96220037	     -2.87545775	     -1.82268395	    -62.30189792	     -0.48694959	     -5.32350821	      9.40134340	      8.80045641	      4.91102345	    -22.40571400	     10.60536766	      2.79043741	     -4.45213003	     -2.84178510	     -4.90206893	     -4.12882517	    -17.56429860	     13.32802235	     19.39558804	     86.51662706	      0.00000000	      0.00000000	      1.44076211	    -15.59251512	     24.45674387	     23.23535582	     86.51662706	      0.00000000	      0.00000000
      1.43000000	     -1.86776185	      3.38045337	      3.88800362	     -0.14742717	      0.91786980	      0.23628029	     25.04572371	     -2.85642482	     -2.29963372	    -60.52515293	      0.04026289	     -5.34105097	      7.99325275	      8.56342762	      5.47656281	    -21.53468461	     10.91434156	      2.40509080	     -4.52527717	     -2.52365203	     -5.46772723	     -4.56642578	    -17.46390835	     12.92323543	     18.89680561	     86.51662706	      0.00000000	      0.00000000	      1.77456190	    -15.80426633	     24.76827231	     23.90618654	     86.51662706	      0.00000000	      0.00000000
      1.44000000	     -1.78250842	      3.17148617	      3.99168926	     -0.13509145	      0.91858938	      0.23595615	     25.98789947	     -2.86344043	     -2.80728050	    -58.45768662	      0.43637120	     -5.58702952	      6.54277210	      8.31986891	      5.97931202	    -20.63019260	     11.21432073	      2.09362581	     -4.62552240	     -2.23597008	     -6.03557986	     -4.99764672	    -17.36246035	     12.46371193	     18.41546361	     86.51662706	      0.00000000	      0.00000000	      2.12410185	    -16.04135393	     25.07016739	     24.57212005	     86.51662706	      0.00000000	      0.00000000
      1.45000000	     -1.67768791	      2.99210251	      4.10796977	     -0.12272994	      0.91908863	      0.23568166	     26.78731788	     -2.88924133	     -3.32342137	    -56.11295143	      0.71884255	     -5.99873734	      5.05004767	      8.07154423	      6.41586621	    -19.69694503	     11.50924523	      1.88110248	     -4.75210477	     -1.98599276	     -6.59797416	     -5.41710523	    -17.25330383	     11.97661779	     17.93535947	     86.51662706	      0.00000000	      0.00000000	      2.48783521	    -16.30034161	     25.35353868	     25.22119376	     86.51662706	      0.00000000	      0.00000000
